<?xml version="1.0" standalone="no"?>
<!DOCTYPE svg PUBLIC "-//W3C//DTD SVG 20010904//EN"
 "http://www.w3.org/TR/2001/REC-SVG-20010904/DTD/svg10.dtd">
<svg version="1.0" xmlns="http://www.w3.org/2000/svg"
 width="3000.000000pt" height="3000.000000pt" viewBox="0 0 3000.000000 3000.000000"
 preserveAspectRatio="xMidYMid meet">
<metadata>
Created by potrace 1.14, written by Peter Selinger 2001-2017
</metadata>
<g transform="translate(0.000000,3000.000000) scale(0.100000,-0.100000)"
fill="#000000" stroke="none">
<path d="M0 15000 l0 -15000 15000 0 15000 0 0 15000 0 15000 -15000 0 -15000
0 0 -15000z m15670 12460 c2055 -113 4000 -710 5760 -1767 213 -128 673 -433
867 -575 534 -390 973 -762 1427 -1208 646 -636 1149 -1243 1641 -1980 474
-709 871 -1459 1190 -2249 670 -1659 974 -3469 885 -5266 -13 -255 -30 -496
-37 -515 -3 -8 -7 -42 -8 -75 -3 -54 -9 -119 -20 -197 -5 -42 -13 -48 -64 -48
-34 0 -55 6 -71 20 -31 27 -40 25 -40 -6 0 -14 -4 -23 -10 -19 -5 3 -7 12 -3
20 4 11 -2 15 -20 15 -14 0 -29 5 -32 10 -4 6 5 10 21 10 15 0 25 3 22 6 -3 3
-29 5 -57 6 -46 0 -50 2 -34 13 17 13 17 14 -1 21 -11 4 -21 2 -27 -7 -8 -12
-11 -12 -19 1 -5 8 -10 23 -10 33 0 9 -7 17 -15 17 -8 0 -15 -9 -15 -20 0 -12
-7 -20 -16 -20 -10 0 -14 7 -12 23 1 12 -2 23 -7 24 -16 3 -23 36 -18 78 3 22
2 37 -3 32 -9 -9 -12 -177 -2 -177 4 0 9 15 11 33 3 21 4 16 4 -16 -1 -36 -4
-46 -14 -43 -8 4 -18 -5 -24 -21 -5 -14 -12 -23 -15 -20 -3 3 0 15 6 27 14 26
20 129 8 136 -4 3 -9 -5 -10 -18 -2 -31 -4 -40 -13 -61 -4 -9 -5 -24 -2 -32 4
-8 2 -17 -2 -19 -5 -3 -7 -20 -5 -37 2 -17 1 -36 -4 -43 -4 -6 -8 -24 -9 -41
-1 -16 -4 -48 -7 -70 -17 -119 -24 -162 -30 -185 -10 -48 -20 -125 -20 -167 0
-23 -3 -37 -7 -31 -4 5 -10 -16 -14 -48 -9 -76 -86 -465 -130 -659 -312 -1366
-883 -2702 -1660 -3885 -985 -1498 -2323 -2783 -3850 -3698 -510 -305 -1036
-571 -1579 -797 -1146 -476 -2382 -772 -3631 -869 -370 -29 -701 -39 -1115
-33 -422 6 -564 14 -940 48 -3548 320 -6792 2242 -8802 5214 -1100 1627 -1778
3479 -1983 5420 -42 405 -56 652 -62 1115 -8 625 17 1092 88 1660 186 1493
665 2969 1384 4268 19 35 32 69 28 74 -3 7 -1 8 5 4 7 -4 13 -2 13 3 1 6 2 16
3 21 0 6 7 14 14 19 7 4 14 15 16 24 1 9 9 24 18 34 16 19 93 154 93 164 0 3
8 13 18 23 20 20 22 30 5 21 -7 -4 -6 -1 2 7 29 25 69 91 62 102 -10 17 -11
37 -1 30 5 -3 7 -10 4 -15 -4 -5 -2 -9 3 -9 12 0 46 50 35 50 -5 0 -3 4 2 8
11 7 49 63 50 72 0 3 4 11 8 18 5 7 4 12 -2 12 -6 0 -11 8 -10 18 0 10 3 12 6
5 2 -7 9 -13 14 -13 4 0 6 7 3 15 -4 11 -2 13 9 9 8 -3 18 -1 22 5 3 7 0 8 -9
5 -12 -5 -14 0 -10 22 3 15 8 32 11 37 3 6 1 7 -4 4 -6 -4 -16 -1 -22 6 -8 10
-24 12 -63 6 -29 -4 -62 -8 -72 -8 -19 -1 -19 -1 -1 13 17 12 14 15 -41 30
-93 26 -91 26 -74 36 14 9 7 14 -13 11 -4 -1 -12 10 -17 24 -12 32 -22 32 -50
-5 -13 -16 -27 -30 -32 -30 -5 0 -3 7 6 15 18 19 10 46 -11 38 -13 -5 -14 -3
-3 17 10 18 14 20 21 9 7 -10 8 -9 6 6 -2 11 -7 28 -11 37 -9 21 10 58 30 58
8 0 13 -4 10 -8 -2 -4 5 -8 17 -9 12 0 16 1 10 4 -7 3 -13 9 -13 14 0 6 7 6
18 0 14 -8 18 -6 19 10 1 10 -3 19 -8 19 -6 0 -8 -4 -5 -8 3 -5 -9 -9 -27 -10
l-32 -1 25 14 c14 8 19 14 12 15 -10 0 -10 4 0 20 7 11 18 18 25 16 7 -3 20 3
30 12 11 9 13 13 6 8 -9 -6 -18 -5 -24 1 -6 6 3 23 27 49 19 21 33 34 30 28
-3 -6 1 -11 9 -11 12 0 12 4 -2 20 -17 19 -17 20 -1 14 12 -4 15 -2 12 8 -7
16 26 64 43 65 7 0 10 6 7 13 -2 7 15 35 38 62 24 27 36 46 28 41 -9 -4 -7 -1
3 7 9 8 17 17 17 21 0 10 80 119 98 134 9 6 13 12 9 12 -4 0 15 30 44 68 28
37 55 66 61 64 5 -1 7 2 4 7 -5 8 142 208 191 261 7 8 48 58 90 110 254 318
610 708 950 1040 1345 1316 2969 2310 4748 2905 1126 377 2291 588 3500 635
257 10 860 5 1125 -10z m-11135 -5730 c-20 -22 -35 -26 -35 -10 0 6 10 15 23
20 32 13 32 12 12 -10z m-35 -41 c0 8 2 12 5 9 9 -8 -6 -38 -16 -32 -5 3 -9 1
-9 -5 0 -17 20 -23 26 -7 3 8 13 17 22 21 13 5 13 3 -2 -14 -11 -12 -16 -29
-13 -41 4 -17 2 -20 -10 -15 -9 3 -19 1 -23 -5 -5 -8 -6 28 -1 90 1 13 2 13
11 0 8 -12 10 -12 10 -1z m-38 -86 c-2 -12 -9 -23 -14 -23 -5 0 -7 -4 -4 -8 2
-4 -5 -9 -17 -9 -20 -2 -20 -1 -4 8 9 6 17 15 17 21 0 6 -7 5 -17 -3 -16 -13
-17 -12 -4 3 7 10 18 15 24 11 6 -4 8 0 5 9 -4 8 -1 15 6 15 8 0 11 -9 8 -24z
m18 -38 c0 -8 -4 -15 -10 -15 -5 0 -10 7 -10 15 0 8 5 15 10 15 6 0 10 -7 10
-15z m80 3 c0 -4 -7 -8 -15 -8 -8 0 -15 4 -15 8 0 5 7 9 15 9 8 0 15 -4 15 -9z
m-43 -14 c-3 -3 -12 -4 -19 -1 -8 3 -5 6 6 6 11 1 17 -2 13 -5z m382 -4 c4 0
8 -7 8 -15 0 -8 -4 -15 -9 -15 -5 0 -7 -4 -3 -9 3 -5 0 -13 -7 -17 -7 -4 -10
-4 -6 1 4 4 1 14 -7 22 -20 20 -19 47 1 39 9 -3 19 -6 23 -6z m-192 -76 c-3
-3 -12 -4 -19 -1 -8 3 -5 6 6 6 11 1 17 -2 13 -5z m-317 -8 c0 -2 -8 -10 -17
-17 -16 -13 -17 -12 -4 4 13 16 21 21 21 13z m-20 -50 c0 -3 -4 -8 -10 -11 -5
-3 -10 -1 -10 4 0 6 5 11 10 11 6 0 10 -2 10 -4z m472 -37 c-23 -22 -30 -34
-22 -39 8 -5 7 -9 -3 -13 -21 -8 -13 33 8 49 9 7 12 14 8 16 -4 3 -3 3 4 2 7
-2 15 1 18 6 4 6 9 10 13 10 4 0 -8 -14 -26 -31z m-533 -2 c8 -10 7 -14 -2
-14 -8 0 -14 6 -14 14 0 7 1 13 2 13 2 0 8 -6 14 -13z m0 -41 c9 -11 9 -16 0
-22 -7 -4 -9 -3 -5 4 3 6 -2 15 -11 21 -10 6 -13 11 -7 11 6 0 17 -6 23 -14z
m461 -37 c0 -5 -4 -9 -8 -9 -5 0 -9 7 -9 15 0 8 4 12 9 9 4 -3 8 -9 8 -15z
m-35 2 c3 -5 2 -12 -3 -15 -5 -3 -9 1 -9 9 0 17 3 19 12 6z m21 -33 c4 -7 3
-8 -4 -4 -7 4 -12 0 -12 -10 0 -10 -3 -15 -6 -11 -7 6 2 37 10 37 3 0 8 -5 12
-12z m25 -6 c-5 -10 -18 -25 -27 -33 -11 -9 -9 -2 6 19 26 35 36 42 21 14z
m-88 -117 c-3 -9 -8 -14 -10 -11 -3 3 -2 9 2 15 9 16 15 13 8 -4z m-39 -21 c3
-8 2 -12 -4 -9 -6 3 -10 10 -10 16 0 14 7 11 14 -7z m22299 -7540 c3 -18 1
-22 -6 -15 -8 8 -17 6 -31 -7 -11 -10 -16 -11 -11 -3 6 11 36 47 41 50 1 1 4
-11 7 -25z m387 -63 c0 -22 -5 -41 -12 -43 -7 -3 -12 -25 -13 -52 -1 -26 -7
-52 -14 -59 -10 -9 -10 -6 -1 17 8 22 8 37 -1 58 -6 16 -9 31 -5 35 3 3 6 0 6
-7 0 -9 5 -7 15 6 9 12 12 31 9 52 -4 20 -2 32 5 32 6 0 11 -17 11 -39z m-150
-51 c0 -5 -5 -10 -11 -10 -5 0 -7 5 -4 10 3 6 8 10 11 10 2 0 4 -4 4 -10z
m166 -25 c-8 -41 -36 -98 -36 -73 0 9 5 20 11 24 6 4 8 21 5 43 -4 26 -3 30 4
16 8 -19 9 -19 9 3 1 12 4 22 7 22 3 0 3 -16 0 -35z m-16 -141 c0 -3 -7 -1
-15 6 -8 7 -15 17 -15 22 0 5 7 3 15 -6 8 -8 15 -18 15 -22z"/>
<path d="M19545 24073 c-320 -27 -624 -107 -862 -227 -314 -157 -676 -481
-945 -844 -149 -199 -544 -827 -941 -1492 -758 -1269 -1045 -1727 -1421 -2270
-845 -1217 -1607 -1921 -2263 -2091 -357 -92 -634 -45 -747 125 -105 158 -134
354 -117 778 20 467 62 746 215 1428 114 509 136 653 143 930 8 315 -22 492
-116 685 -100 204 -237 343 -437 443 -155 78 -345 131 -589 163 -63 8 -424 13
-1222 16 l-1133 4 0 -675 0 -676 93 0 c50 0 475 11 942 25 468 14 892 25 943
25 l93 0 -16 -29 c-8 -16 -22 -91 -30 -167 -8 -76 -51 -318 -94 -538 -108
-543 -177 -914 -201 -1076 -99 -680 -73 -1195 86 -1680 89 -269 204 -466 379
-648 275 -287 597 -442 1050 -509 167 -24 570 -24 745 0 342 48 606 127 909
273 484 233 1020 644 1483 1138 338 360 697 801 1033 1271 361 505 884 1332
1328 2100 362 628 672 1143 830 1380 119 178 220 307 337 428 172 179 321 277
505 333 82 25 104 28 255 28 151 0 172 -2 242 -26 142 -47 236 -128 303 -260
45 -90 59 -163 52 -268 -12 -173 -74 -309 -201 -435 -127 -127 -260 -185 -462
-200 -101 -8 -331 8 -444 31 -145 29 -362 110 -552 205 -75 38 -78 38 -88 19
-9 -17 -534 -1175 -547 -1207 -2 -6 16 -21 44 -33 573 -261 928 -350 1453
-367 574 -18 1018 98 1369 357 334 245 548 536 694 940 102 282 142 525 134
805 -7 236 -40 409 -111 595 -201 518 -620 918 -1149 1095 -231 77 -431 106
-725 103 -114 -1 -225 -3 -247 -5z"/>
<path d="M4785 22071 c-3 -5 -2 -12 3 -15 5 -3 9 1 9 9 0 17 -3 19 -12 6z"/>
<path d="M5226 22008 c3 -5 10 -6 15 -3 13 9 11 12 -6 12 -8 0 -12 -4 -9 -9z"/>
<path d="M4685 21959 c-4 -6 -5 -12 -2 -15 2 -3 7 2 10 11 7 17 1 20 -8 4z"/>
<path d="M4651 21937 c-13 -21 -12 -21 5 -5 10 10 16 20 13 22 -3 3 -11 -5
-18 -17z"/>
<path d="M5136 21851 c-11 -12 -14 -21 -7 -26 6 -3 12 -4 12 -1 1 3 2 9 3 14
1 4 5 13 9 20 12 18 2 15 -17 -7z"/>
<path d="M5066 21781 c-15 -17 -15 -19 1 -32 15 -11 16 -11 6 1 -10 11 -9 17
4 32 9 10 14 18 11 18 -3 0 -12 -8 -22 -19z"/>
<path d="M5085 21770 c-3 -6 1 -7 9 -4 18 7 21 14 7 14 -6 0 -13 -4 -16 -10z"/>
<path d="M4850 21739 c0 -5 5 -7 10 -4 6 3 10 8 10 11 0 2 -4 4 -10 4 -5 0
-10 -5 -10 -11z"/>
<path d="M5051 21723 c7 -12 15 -20 18 -17 3 2 -3 12 -13 22 -17 16 -18 16 -5
-5z"/>
<path d="M4990 21675 c0 -8 2 -15 4 -15 2 0 6 7 10 15 3 8 1 15 -4 15 -6 0
-10 -7 -10 -15z"/>
<path d="M4965 21640 c-3 -6 1 -7 9 -4 18 7 21 14 7 14 -6 0 -13 -4 -16 -10z"/>
<path d="M4984 21626 c-25 -9 -30 -15 -24 -31 5 -14 -1 -30 -18 -52 -14 -19
-19 -33 -12 -33 6 0 14 9 17 20 3 11 10 17 17 13 6 -3 8 -2 3 2 -4 5 5 21 20
37 15 15 22 28 15 28 -6 0 -16 -8 -21 -17 -6 -10 -11 -13 -11 -6 0 6 12 21 28
32 30 23 30 23 -14 7z"/>
<path d="M4800 21595 c0 -17 2 -18 24 -9 23 9 20 24 -4 24 -11 0 -20 -7 -20
-15z"/>
<path d="M15225 15926 c-274 -53 -499 -215 -611 -441 -82 -167 -117 -387 -96
-609 23 -245 99 -423 242 -566 293 -293 781 -344 1127 -118 199 130 318 296
375 524 18 75 22 118 22 274 1 206 -13 299 -64 427 -96 239 -318 426 -595 499
-82 22 -310 27 -400 10z"/>
<path d="M26916 13875 c4 -8 10 -15 15 -15 4 0 6 7 3 15 -4 8 -10 15 -15 15
-4 0 -6 -7 -3 -15z"/>
<path d="M27366 13797 c3 -10 9 -15 12 -12 3 3 0 11 -7 18 -10 9 -11 8 -5 -6z"/>
<path d="M27168 13773 c7 -3 16 -2 19 1 4 3 -2 6 -13 5 -11 0 -14 -3 -6 -6z"/>
<path d="M27347 13763 c-3 -5 1 -14 9 -21 12 -11 14 -9 14 8 0 20 -14 27 -23
13z"/>
<path d="M17850 13343 c-245 -25 -448 -61 -670 -119 -201 -53 -498 -146 -645
-202 -71 -27 -881 -365 -1800 -750 -918 -385 -1716 -716 -1772 -736 -146 -50
-436 -121 -583 -142 -86 -12 -187 -17 -325 -17 -700 1 -1130 201 -1857 866
l-126 116 -423 -512 c-232 -282 -429 -520 -438 -531 -15 -17 -13 -21 29 -58
283 -252 817 -638 1140 -824 510 -293 973 -408 1650 -408 392 0 636 31 1015
128 268 69 371 106 837 297 240 98 439 179 442 179 3 0 5 -658 4 -1462 l-3
-1461 -630 -264 c-657 -275 -751 -311 -968 -368 -453 -118 -903 -122 -1313
-10 -351 96 -692 313 -1191 759 l-152 136 -440 -528 -440 -527 23 -20 c198
-171 599 -477 816 -623 673 -451 1139 -606 1895 -628 476 -14 926 54 1424 218
92 30 869 349 1925 790 1753 732 1873 779 2150 849 401 101 656 126 1007 98
465 -37 801 -145 1459 -470 l275 -136 307 601 306 601 -42 23 c-85 50 -466
240 -601 301 -690 311 -1176 424 -1896 438 -472 9 -740 -28 -1254 -177 -272
-78 -469 -150 -839 -305 -191 -80 -349 -145 -352 -145 -2 0 -3 658 -2 1463 l3
1462 600 257 c625 268 764 320 1055 393 391 98 619 121 959 95 476 -37 792
-137 1450 -461 167 -82 305 -148 306 -147 8 10 157 301 369 720 l246 486 -318
160 c-794 398 -1270 540 -1977 592 -129 9 -554 11 -635 3z"/>
</g>
</svg>
